<svg width="32" height="33" viewBox="0 0 32 33" fill="none" xmlns="http://www.w3.org/2000/svg">
  <path d="M6 14.4062C6 11.7541 7.05357 9.21055 8.92893 7.33518C10.8043 5.45982 13.3478 4.40625 16 4.40625C18.6522 4.40625 21.1957 5.45982 23.0711 7.33518C24.9464 9.21055 26 11.7541 26 14.4062" stroke="white" stroke-width="1.5" stroke-linecap="round" stroke-linejoin="round"/>
  <path d="M11.2 14.4062C11.6611 12.1475 12.8884 10.1175 14.6742 8.65964C16.46 7.20182 18.6947 6.40578 21 6.40625C21.3595 6.40644 21.7188 6.42563 22.0763 6.46375" stroke="white" stroke-width="1.5" stroke-linecap="round" stroke-linejoin="round"/>
  <path d="M16.8325 14.4062C17.4839 12.9163 18.4883 11.6073 19.7588 10.5924C21.0294 9.57754 22.5279 8.88727 24.125 8.58124" stroke="white" stroke-width="1.5" stroke-linecap="round" stroke-linejoin="round"/>
  <path d="M11 25.3188C8.91072 24.3611 7.14038 22.8237 5.89947 20.8892C4.65856 18.9547 3.99928 16.7045 4 14.4062H28C28.0007 16.7045 27.3414 18.9547 26.1005 20.8892C24.8596 22.8237 23.0893 24.3611 21 25.3188V26.4062C21 26.6715 20.8946 26.9258 20.7071 27.1134C20.5196 27.3009 20.2652 27.4062 20 27.4062H12C11.7348 27.4062 11.4804 27.3009 11.2929 27.1134C11.1054 26.9258 11 26.6715 11 26.4062V25.3188Z" stroke="white" stroke-width="1.5" stroke-linecap="round" stroke-linejoin="round"/>
</svg>

