<svg width="32" height="33" viewBox="0 0 32 33" fill="none" xmlns="http://www.w3.org/2000/svg">
<path d="M16 7.34375L20 6.34375C20 6.34375 23.31 11.5125 24.8625 17.3075C25.0006 17.8156 25.037 18.3459 24.9696 18.8681C24.9023 19.3903 24.7325 19.894 24.4701 20.3505C24.2076 20.8069 23.8576 21.207 23.4402 21.5279C23.0228 21.8488 22.5461 22.0841 22.0375 22.2203C21.5289 22.3565 20.9984 22.391 20.4765 22.3218C19.9546 22.2526 19.4514 22.081 18.996 21.8169C18.5405 21.5527 18.1416 21.2013 17.8223 20.7827C17.5029 20.3641 17.2694 19.8866 17.135 19.3775C15.5825 13.5825 16 7.34375 16 7.34375Z" stroke="white" stroke-width="1.5" stroke-linecap="round" stroke-linejoin="round"/>
<path d="M22.0338 22.2062L23.8288 28.9025" stroke="white" stroke-width="1.5" stroke-linecap="round" stroke-linejoin="round"/>
<path d="M27 28.0525L21 29.66" stroke="white" stroke-width="1.5" stroke-linecap="round" stroke-linejoin="round"/>
<path d="M16 4.34375L12 3.34375C12 3.34375 8.69001 8.5125 7.13751 14.3075C6.99942 14.8156 6.96301 15.3459 7.03035 15.8681C7.09768 16.3903 7.26745 16.894 7.52991 17.3505C7.79237 17.8069 8.14235 18.207 8.55979 18.5279C8.97723 18.8488 9.45391 19.0841 9.96249 19.2203C10.4711 19.3565 11.0015 19.391 11.5235 19.3218C12.0454 19.2526 12.5486 19.081 13.004 18.8169C13.4595 18.5527 13.8583 18.2013 14.1777 17.7827C14.497 17.3641 14.7306 16.8866 14.865 16.3775C16.2863 10.5688 16 4.34375 16 4.34375Z" stroke="white" stroke-width="1.5" stroke-linecap="round" stroke-linejoin="round"/>
<path d="M9.96626 19.2062L8.17126 25.9025" stroke="white" stroke-width="1.5" stroke-linecap="round" stroke-linejoin="round"/>
<path d="M5 25.0525L11 26.66" stroke="white" stroke-width="1.5" stroke-linecap="round" stroke-linejoin="round"/>
<path d="M16.0613 12.5787L22.4925 10.9688" stroke="white" stroke-width="1.5" stroke-linecap="round" stroke-linejoin="round"/>
<path d="M15.865 9.81001L9.40375 8.19501" stroke="white" stroke-width="1.5" stroke-linecap="round" stroke-linejoin="round"/>
<path d="M24 5.34375L26 4.34375" stroke="white" stroke-width="1.5" stroke-linecap="round" stroke-linejoin="round"/>
<path d="M26 9.34375H28" stroke="white" stroke-width="1.5" stroke-linecap="round" stroke-linejoin="round"/>
<path d="M7 4.34375L5 3.34375" stroke="white" stroke-width="1.5" stroke-linecap="round" stroke-linejoin="round"/>
<path d="M5 8.34375H3" stroke="white" stroke-width="1.5" stroke-linecap="round" stroke-linejoin="round"/>
</svg>
