<svg width="32" height="33" viewBox="0 0 32 33" fill="none" xmlns="http://www.w3.org/2000/svg">
<g clip-path="url(#clip0_792_5)">
<path d="M26.9237 12.5649C26.8481 12.3821 26.72 12.2259 26.5555 12.116C26.3911 12.0061 26.1978 11.9474 26 11.9474H5.99999C5.8021 11.9472 5.60861 12.0058 5.44401 12.1157C5.27942 12.2255 5.15112 12.3818 5.07537 12.5646C4.99962 12.7474 4.97981 12.9486 5.01846 13.1427C5.05712 13.3368 5.15248 13.515 5.29249 13.6549L15.2925 23.6549C15.3854 23.7479 15.4957 23.8216 15.6171 23.8719C15.7385 23.9223 15.8686 23.9482 16 23.9482C16.1314 23.9482 16.2615 23.9223 16.3829 23.8719C16.5043 23.8216 16.6146 23.7479 16.7075 23.6549L26.7075 13.6549C26.8473 13.515 26.9425 13.3367 26.981 13.1427C27.0195 12.9487 26.9995 12.7476 26.9237 12.5649Z" fill="white"/>
</g>
<defs>
<clipPath id="clip0_792_5">
<rect width="32" height="32" fill="white" transform="translate(0 0.947388)"/>
</clipPath>
</defs>
</svg>
