<svg width="33" height="33" viewBox="0 0 33 33" fill="none" xmlns="http://www.w3.org/2000/svg">
<g clip-path="url(#clip0_787_16)">
<path d="M29.6563 16.0625C29.6522 19.2398 28.4864 22.3059 26.3786 24.6833C24.2708 27.0608 21.3664 28.5854 18.2125 28.97C18.1423 28.978 18.0712 28.971 18.0038 28.9494C17.9365 28.9279 17.8746 28.8923 17.822 28.8451C17.7694 28.7978 17.7275 28.74 17.6989 28.6753C17.6703 28.6107 17.6558 28.5407 17.6563 28.47V19.0625H20.6563C20.7933 19.0628 20.929 19.0349 21.0549 18.9806C21.1807 18.9262 21.2941 18.8466 21.3879 18.7466C21.4816 18.6466 21.5539 18.5284 21.6 18.3993C21.6462 18.2703 21.6653 18.1331 21.6563 17.9963C21.6342 17.7391 21.5155 17.4999 21.3242 17.3267C21.1329 17.1534 20.8831 17.0591 20.625 17.0625H17.6563V14.0625C17.6563 13.5321 17.867 13.0234 18.242 12.6483C18.6171 12.2732 19.1258 12.0625 19.6563 12.0625H21.6563C21.7933 12.0628 21.929 12.0349 22.0549 11.9806C22.1807 11.9263 22.2941 11.8466 22.3879 11.7466C22.4816 11.6466 22.5539 11.5284 22.6 11.3993C22.6462 11.2703 22.6653 11.1331 22.6563 10.9963C22.6341 10.7387 22.5151 10.4991 22.3233 10.3258C22.1314 10.1525 21.881 10.0584 21.6225 10.0625H19.6563C18.5954 10.0625 17.578 10.484 16.8278 11.2341C16.0777 11.9842 15.6563 13.0017 15.6563 14.0625V17.0625H12.6563C12.5192 17.0622 12.3835 17.0901 12.2576 17.1445C12.1318 17.1988 12.0184 17.2785 11.9247 17.3784C11.8309 17.4784 11.7587 17.5966 11.7125 17.7257C11.6663 17.8548 11.6472 17.992 11.6563 18.1288C11.6784 18.3864 11.7974 18.626 11.9892 18.7993C12.1811 18.9726 12.4315 19.0666 12.69 19.0625H15.6563V28.4725C15.6567 28.5431 15.6422 28.6129 15.6137 28.6775C15.5852 28.742 15.5434 28.7998 15.4909 28.847C15.4385 28.8943 15.3767 28.9299 15.3095 28.9515C15.2424 28.9731 15.1714 28.9803 15.1013 28.9725C11.8629 28.5782 8.89071 26.9824 6.77285 24.5011C4.65498 22.0198 3.54586 18.8338 3.665 15.5738C3.915 8.82378 9.3825 3.33628 16.1375 3.07378C17.8864 3.00604 19.6309 3.29172 21.2668 3.91374C22.9027 4.53575 24.3964 5.48133 25.6584 6.6939C26.9205 7.90647 27.925 9.36113 28.6119 10.9709C29.2988 12.5806 29.654 14.3124 29.6563 16.0625Z" fill="white"/>
</g>
<defs>
<clipPath id="clip0_787_16">
<rect width="32" height="32" fill="white" transform="translate(0.65625 0.0625)"/>
</clipPath>
</defs>
</svg>
