<svg width="32" height="32" viewBox="0 0 32 32" fill="none" xmlns="http://www.w3.org/2000/svg">
<path d="M25.5 1.5L30.5 6.5" stroke="white" stroke-width="1.5" stroke-linecap="round" stroke-linejoin="round"/>
<path d="M22 7L25 10" stroke="white" stroke-width="1.5" stroke-linecap="round" stroke-linejoin="round"/>
<path d="M7.50873 14C7.90385 13.9935 8.28845 13.8717 8.61533 13.6497C8.9422 13.4276 9.1971 13.1149 9.34873 12.75C9.56346 12.2068 9.8872 11.7133 10.3 11.3C12.4537 9.14626 16.5275 9.72876 19.4 12.6C22.2725 15.4713 22.8537 19.5463 20.7 21.7C20.2845 22.1137 19.7884 22.4374 19.2425 22.6513C18.8776 22.8029 18.5649 23.0578 18.3428 23.3847C18.1208 23.7115 17.999 24.0961 17.9925 24.4913C17.945 26 17.4237 27.375 16.4 28.4C13.75 31.05 8.73498 30.3338 5.19998 26.8C1.66498 23.2663 0.949984 18.25 3.59998 15.6C4.62498 14.5763 5.99998 14.055 7.50873 14Z" stroke="white" stroke-width="1.5" stroke-linecap="round" stroke-linejoin="round"/>
<path d="M7 21L11 25" stroke="white" stroke-width="1.5" stroke-linecap="round" stroke-linejoin="round"/>
<path d="M14 21C15.6569 21 17 19.6569 17 18C17 16.3431 15.6569 15 14 15C12.3431 15 11 16.3431 11 18C11 19.6569 12.3431 21 14 21Z" stroke="white" stroke-width="1.5" stroke-linecap="round" stroke-linejoin="round"/>
<path d="M14 15L26.5 2.5" stroke="white" stroke-width="1.5" stroke-linecap="round" stroke-linejoin="round"/>
<path d="M17 18L29.5 5.5" stroke="white" stroke-width="1.5" stroke-linecap="round" stroke-linejoin="round"/>
</svg>
