<svg width="33" height="33" viewBox="0 0 33 33" fill="none" xmlns="http://www.w3.org/2000/svg">
<g clip-path="url(#clip0_785_13)">
<path d="M20.6562 16.0625C20.6562 16.8536 20.4217 17.627 19.9821 18.2848C19.5426 18.9426 18.9179 19.4553 18.187 19.758C17.4561 20.0608 16.6518 20.14 15.8759 19.9856C15.1 19.8313 14.3872 19.4503 13.8278 18.8909C13.2684 18.3315 12.8874 17.6188 12.7331 16.8429C12.5788 16.0669 12.658 15.2627 12.9607 14.5318C13.2635 13.8009 13.7762 13.1761 14.434 12.7366C15.0918 12.2971 15.8651 12.0625 16.6562 12.0625C17.7171 12.0625 18.7345 12.4839 19.4847 13.2341C20.2348 13.9842 20.6562 15.0016 20.6562 16.0625ZM29.6562 10.0625V22.0625C29.6543 23.9184 28.9161 25.6977 27.6038 27.0101C26.2915 28.3224 24.5122 29.0605 22.6562 29.0625H10.6562C8.80034 29.0605 7.02102 28.3224 5.7087 27.0101C4.39637 25.6977 3.65824 23.9184 3.65625 22.0625V10.0625C3.65824 8.20659 4.39637 6.42727 5.7087 5.11495C7.02102 3.80262 8.80034 3.06449 10.6562 3.0625H22.6562C24.5122 3.06449 26.2915 3.80262 27.6038 5.11495C28.9161 6.42727 29.6543 8.20659 29.6562 10.0625ZM22.6562 16.0625C22.6563 14.8758 22.3044 13.7158 21.6451 12.7291C20.9858 11.7424 20.0487 10.9733 18.9524 10.5192C17.856 10.0651 16.6496 9.94628 15.4857 10.1778C14.3218 10.4093 13.2527 10.9807 12.4136 11.8199C11.5745 12.659 11.0031 13.7281 10.7715 14.892C10.54 16.0558 10.6588 17.2622 11.113 18.3586C11.5671 19.455 12.3361 20.392 13.3228 21.0513C14.3095 21.7106 15.4696 22.0625 16.6562 22.0625C18.247 22.0608 19.7722 21.4282 20.8971 20.3033C22.0219 19.1785 22.6546 17.6533 22.6562 16.0625ZM25.6562 8.5625C25.6562 8.26583 25.5683 7.97582 25.4035 7.72914C25.2386 7.48247 25.0044 7.29021 24.7303 7.17668C24.4562 7.06315 24.1546 7.03344 23.8636 7.09132C23.5726 7.1492 23.3054 7.29206 23.0956 7.50184C22.8858 7.71162 22.7429 7.97889 22.6851 8.26986C22.6272 8.56084 22.6569 8.86244 22.7704 9.13653C22.884 9.41061 23.0762 9.64488 23.3229 9.8097C23.5696 9.97453 23.8596 10.0625 24.1562 10.0625C24.5541 10.0625 24.9356 9.90446 25.2169 9.62316C25.4982 9.34186 25.6562 8.96032 25.6562 8.5625Z" fill="white"/>
</g>
<defs>
<clipPath id="clip0_785_13">
<rect width="32" height="32" fill="white" transform="translate(0.65625 0.0625)"/>
</clipPath>
</defs>
</svg>
