<svg width="33" height="33" viewBox="0 0 33 33" fill="none" xmlns="http://www.w3.org/2000/svg">
<g clip-path="url(#clip0_784_2)">
<path d="M16.6562 21.0625C19.4177 21.0625 21.6562 18.8239 21.6562 16.0625C21.6562 13.3011 19.4177 11.0625 16.6562 11.0625C13.8948 11.0625 11.6562 13.3011 11.6562 16.0625C11.6562 18.8239 13.8948 21.0625 16.6562 21.0625Z" stroke="white" stroke-width="1.5" stroke-linecap="round" stroke-linejoin="round"/>
<path d="M22.6562 4.0625H10.6562C7.34254 4.0625 4.65625 6.74879 4.65625 10.0625V22.0625C4.65625 25.3762 7.34254 28.0625 10.6562 28.0625H22.6562C25.97 28.0625 28.6562 25.3762 28.6562 22.0625V10.0625C28.6562 6.74879 25.97 4.0625 22.6562 4.0625Z" stroke="white" stroke-width="1.5" stroke-linecap="round" stroke-linejoin="round"/>
<path d="M23.1562 10.8125C23.8466 10.8125 24.4062 10.2529 24.4062 9.5625C24.4062 8.87214 23.8466 8.3125 23.1562 8.3125C22.4659 8.3125 21.9062 8.87214 21.9062 9.5625C21.9062 10.2529 22.4659 10.8125 23.1562 10.8125Z" fill="white"/>
</g>
<defs>
<clipPath id="clip0_784_2">
<rect width="32" height="32" fill="white" transform="translate(0.65625 0.0625)"/>
</clipPath>
</defs>
</svg>
