<?xml version="1.0" encoding="UTF-8"?>
<svg id="_レイヤー_2" data-name="レイヤー 2" xmlns="http://www.w3.org/2000/svg" viewBox="0 0 383.92 239.68">
  <defs>
    <style>
      .cls-1 {
        fill: #44403f;
        stroke-width: 0px;
      }
    </style>
  </defs>
  <g id="_レイヤー_1-2" data-name="レイヤー 1">
    <g>
      <path class="cls-1" d="M153.23,212.11v-1.65h7.77s-.1,13.79-.1,17.67c0,7.48-5.82,11.55-18.35,11.55-5.82,0-13.49-1.07-15.73-1.36l-1.46-5.24c3.69,1.16,10.29,1.75,14.56,1.75,10.39,0,13.49-2.43,13.49-4.56v-2.72c-3.11,1.16-7.77,2.52-12.04,2.52s-18.64-.29-18.64-10.37c0-4.66,5.05-9.44,18.35-9.44,4.08,0,9.22,1.07,12.13,1.84ZM141.39,215.41c-4.85,0-10.78,1.26-10.78,4.56s3.98,4.66,11.36,4.66,11.26-2.14,11.26-2.14v-5.05c-1.65-.87-6.99-2.04-11.84-2.04Z"/>
      <path class="cls-1" d="M117.35,205.87h-7.49v-5.38h7.49v5.38ZM117.35,210.64h-7.49v21.18h7.49v-21.18Z"/>
      <path class="cls-1" d="M198.25,212.97c-2.69-1.97-6.84-2.69-11.65-2.69-4.34,0-9.77,1.22-12.59,1.95v-11.82h-7.61v31.36h7.61v-14.61c1.23-.41,3.85-1.13,8.13-1.44,7.67-.57,12.69,1.3,12.69,5.39v10.71h7.62v-11.03c0-3.73-1.5-5.85-4.2-7.82Z"/>
      <path class="cls-1" d="M75.13,222.29h29.33c0-4.16-1.39-12.57-17.6-12.57s-19.51,5.66-19.51,10.41,1.91,11.7,19.6,11.7c8.58,0,15.35-1.47,15.35-1.47l1.42-5.03c-5.33,1.27-11.25,1.48-15.91,1.48-6.16,0-11.91-.36-12.67-4.51ZM86.94,214.48c4.51,0,9.38,1.34,9.38,3.49h-20.71c2.13-3.12,8.24-3.49,11.33-3.49Z"/>
      <path class="cls-1" d="M229.98,226.86c-5.99,0-6.75-2.29-6.75-5.22,0-.95-.03-3.39-.06-6.24h18.41v-5.1h-18.48c-.06-4.48-.12-8.53-.12-8.53h-3.69l-3.3,8.53h-9.54v5.1h8.89v8.92c0,3.95,4.6,7.52,12.76,7.52s12.21-1.02,12.21-1.02l1.66-5.22s-5.99,1.27-11.97,1.27Z"/>
    </g>
    <g>
      <path class="cls-1" d="M49.27,171.51l1.34-4.84c10.03-1.06,11.44-1.18,13.33-1.18s19.03-.47,19.03,10.14v11.56h-7.78v-1.69c-2.48.86-6.57,2.01-13.33,2.01s-15.61-.83-15.61-6.29,8.02-6.72,13.76-6.72h15.02c0-1.53-.9-4.25-12.46-4.25-4.29,0-13.17,1.3-13.29,1.26ZM63.11,178.75c-2.99,0-9.51.35-9.51,2.28s3.85,2.04,10.62,2.04,8.36-.63,11.07-1.42v-2.87s-9.18-.04-12.17-.04Z"/>
      <path class="cls-1" d="M176.49,171.51l1.34-4.84c10.03-1.06,11.44-1.18,13.33-1.18s19.03-.47,19.03,10.14v11.56h-7.78v-1.69c-2.48.86-6.57,2.01-13.33,2.01s-15.61-.83-15.61-6.29,8.02-6.72,13.76-6.72h15.02c0-1.53-.9-4.25-12.46-4.25-4.29,0-13.17,1.3-13.29,1.26ZM190.32,178.75c-2.99,0-9.51.35-9.51,2.28s3.85,2.04,10.62,2.04,8.36-.63,11.07-1.42v-2.87s-9.18-.04-12.17-.04Z"/>
      <path class="cls-1" d="M160.29,167.8v-1.65h7.77s-.1,13.79-.1,17.67c0,7.48-5.82,11.55-18.35,11.55-5.82,0-13.49-1.07-15.73-1.36l-1.46-5.24c3.69,1.16,10.29,1.75,14.56,1.75,10.39,0,13.49-2.43,13.49-4.56v-2.72c-3.11,1.16-7.77,2.52-12.04,2.52s-18.64-.29-18.64-10.37c0-4.66,5.05-9.44,18.35-9.44,4.08,0,9.22,1.07,12.13,1.84ZM148.45,171.1c-4.85,0-10.78,1.26-10.78,4.56s3.98,4.66,11.36,4.66,11.26-2.14,11.26-2.14v-5.05c-1.65-.87-6.99-2.04-11.84-2.04Z"/>
      <path class="cls-1" d="M120.21,168.66c-2.69-1.97-6.84-2.69-11.65-2.69-4.34,0-9.77,1.22-12.59,1.95v-1.44h-7.61v20.98h7.61v-14.61c1.23-.41,3.85-1.13,8.13-1.44,7.67-.57,12.69,1.3,12.69,5.39v10.71h7.62v-11.03c0-3.73-1.5-5.85-4.2-7.82Z"/>
      <path class="cls-1" d="M244.45,172.02l-1.22-5.27c-7.83-2.12-15.24-.15-19.99,1.18v-1.68h-7.66v21.27h7.66v-14.44c7.53-2.63,16.97-2.08,21.21-1.05Z"/>
      <polygon class="cls-1" points="32.69 157.95 32.69 170.03 8.15 170.03 8.15 157.95 0 157.95 0 187.51 8.15 187.51 8.15 175.24 32.69 175.24 32.69 187.51 40.84 187.51 40.84 157.95 32.69 157.95"/>
    </g>
    <path class="cls-1" d="M176.25,133.64c12.19-1.42,52.22-2.27,81.71,15.78,27.1,16.58,49.35,44.09,53.8,79.69-10.52-38.83-30.83-58.76-58.65-75.64-24.67-14.97-61.48-19.82-76.85-19.82Z"/>
    <g>
      <path class="cls-1" d="M205.36,40.2c2.41,3.65,7.23,7.3,11.24,6.22,4.02-1.07,12.28-1.72,15.95-4.29-7.69,1.29-23.06.86-27.19-1.93Z"/>
      <path class="cls-1" d="M226.08,39.26c2.95-.8,16.72-3.99,37.23,7.53-8.31-2.82-26.5-9.41-37.23-7.53Z"/>
      <path class="cls-1" d="M203.52,47.39c1.77,1.39,19.2,2.51,30.23-1.35-11.12,6.82-25.82,12.26-30.23,1.35Z"/>
      <path class="cls-1" d="M204.85,56.39c2.67,1.41,25.4,1.23,29.15-2.82-6.69,6.88-24.33,14.64-29.15,2.82Z"/>
      <path class="cls-1" d="M208.8,65.44c5.88-.3,19.78-.44,29.53-5.91-12.19,11.52-19.78,14.62-29.53,5.91Z"/>
      <path class="cls-1" d="M220.6,75.4c7.52.55,22.85-6.51,27.36-10.25-6.7,10.11-18.47,19.8-27.36,10.25Z"/>
      <path class="cls-1" d="M234.54,84.15c6.7-1.95,15.1-6.71,20.64-14.19-2.54,7.59-3.37,18.67-20.64,14.19Z"/>
      <path class="cls-1" d="M252.39,88.69c4.33-2.59,7.51-7.59,8.84-14.41,1.7,5.96,3.5,13.33-8.84,14.41Z"/>
      <path class="cls-1" d="M263.78,93.07c1.59-2.23,5-7.87,4.4-12.06,2.2,2.71,5.66,11.16-4.4,12.06Z"/>
    </g>
    <g>
      <path class="cls-1" d="M302.62,47.57c6.43-4.02,16.49-21.05,15.68-31.77,1.47,10.19-.34,22.79-15.68,31.77Z"/>
      <path class="cls-1" d="M323.13,21.81c0-12.11-.13-26.19,14.74-20.51-6.13,4.39-12.79,14.92-14.74,20.51Z"/>
      <path class="cls-1" d="M329.17,27.83c2.24-12.05,8.85-29.66,23.19-20.97-7.32,4.66-21.55,15.67-23.19,20.97Z"/>
      <path class="cls-1" d="M362.91,18.41c-8.85-13.06-20.68,5.74-23.94,14.24,4.94-7.34,15.81-13.71,23.94-14.24Z"/>
      <path class="cls-1" d="M344.76,42.76c4.18-8.66,19.56-26.65,26.23-7.03-6.79-2.12-16.83-3.03-26.23,7.03Z"/>
      <path class="cls-1" d="M346.44,53.59c7.48-11.48,22.29-15.71,22.4-2.8-5.57-2.68-12.51-6.82-22.4,2.8Z"/>
      <path class="cls-1" d="M344.76,64.46c7.76-11.66,21.25-10.86,21.14-.54-6.52-6.57-19.11-2.68-21.14.54Z"/>
      <path class="cls-1" d="M343.79,73.58c3.53-8.98,19.99-13.14,19.56-2.01-5.77-3.89-14.64-2.55-19.56,2.01Z"/>
      <path class="cls-1" d="M344.27,80.54c4.07-3.41,15.56-8.12,16.25.5-4.99-1.12-14.86-1.25-16.25-.5Z"/>
    </g>
    <path class="cls-1" d="M383.92,83.63c-50.87,20.91-80.46-18.53-85.77-24.91-3.69,9.66,31.45,59.36,85.77,24.91Z"/>
    <g>
      <path class="cls-1" d="M276.43,141.59l2.88-.27s-.24,1.88-2.45,3.44c.53-1.9-.43-3.17-.43-3.17Z"/>
      <path class="cls-1" d="M290.02,53.47c2.01-2.01-.98-6.43-6.23-8.45-4.25-1.63-8.7-2.22-14.87,2.49-6.16,4.71-5.88,11.25-2.81,18,1.31,2.57,4.74,6.1,6.28,6.26-1.54-2.92-1.71-5.76-.75-6.87,3.65,1.6,5.36,17.16,15.07,29.65-5.9,9.13-10.75,17.62-9.43,20.7.4.94,1.64,3.59,3.02,4.01-3.41,4.37-6.22,7.36-6.82,7.94-3.24,3.13-5.94,3.95-9.02,4.33-3.08.38-6.85,2.88-7.26,5.42-.37,2.33,2.69,2.98,2.69,2.98-1.22-1.99-.36-2.91.7-3.84,2.94-2.57,6.91-1.99,7.53-1.93,3.68.37,5.61,1.2,6.77,2.46.98-.24,1.7-.69,3.1-.94.33-2.7-.64-4.35-1.84-5.52,0,0,3.55-3.82,7.56-10.09,0,0,.03-.06.08-.16,1.51-.03,2.95-.64,4.28-1.67-.74,4.68.43,8.18,2.28,8.93-4.61,4.52-8.62,8.63-9.53,9.11-2.42,1.28-9,.42-10.78,5.26-1.77,4.85,2.18,5.58,2.52,5.89-1.04-1.67-.84-2.01-.39-3.07,1.85-4.34,6.77-4.49,10.69-3.12,6.74,2.36,6.78,3.39,6.48,9.05,4.09-4.09,4.71-5.2,3.65-7.37-1.15-2.36-5.45-3.73-6.55-4.95.77-.9,3.4-3.81,8.1-9.13,1.61.4,5.6-1.32,6.44-2.1,4.02-3.75,6.98-8.58,9.81-13.25,2.56-4.22,5.41-8.43,10.48-9.65s16.36-.88,23.43-1.84c6.98-.95,13.34-1.93,19.11-5.14-58.04,14.63-102.07-15.16-73.79-43.43Z"/>
    </g>
  </g>
</svg>