<svg xmlns="http://www.w3.org/2000/svg" viewBox="0 0 382.78 233.32">
  <g>
    <path fill="#44403f" d="M153.23,205.74v-1.65h7.77s-.1,13.79-.1,17.67c0,7.48-5.82,11.55-18.35,11.55-5.82,0-13.49-1.07-15.73-1.36l-1.46-5.24c3.69,1.16,10.29,1.75,14.56,1.75,10.39,0,13.49-2.43,13.49-4.56v-2.72c-3.11,1.16-7.77,2.52-12.04,2.52s-18.64-.29-18.64-10.37c0-4.66,5.05-9.44,18.35-9.44,4.08,0,9.22,1.07,12.13,1.84ZM141.39,209.05c-4.85,0-10.78,1.26-10.78,4.56s3.98,4.66,11.36,4.66,11.26-2.14,11.26-2.14v-5.05c-1.65-.87-6.99-2.04-11.84-2.04Z"/>
    <path fill="#44403f" d="M117.35,199.5h-7.49v-5.38h7.49v5.38ZM117.35,204.28h-7.49v21.18h7.49v-21.18Z"/>
    <path fill="#44403f" d="M198.25,206.61c-2.69-1.97-6.84-2.69-11.65-2.69-4.34,0-9.77,1.22-12.59,1.95v-11.82h-7.61v31.36h7.61v-14.61c1.23-.41,3.85-1.13,8.13-1.44,7.67-.57,12.69,1.3,12.69,5.39v10.71h7.62v-11.03c0-3.73-1.5-5.85-4.2-7.82Z"/>
    <path fill="#44403f" d="M75.13,215.92h29.33c0-4.16-1.39-12.57-17.6-12.57s-19.51,5.66-19.51,10.41,1.91,11.7,19.6,11.7c8.58,0,15.35-1.47,15.35-1.47l1.42-5.03c-5.33,1.27-11.25,1.48-15.91,1.48-6.16,0-11.91-.36-12.67-4.51ZM86.94,208.12c4.51,0,9.38,1.34,9.38,3.49h-20.71c2.13-3.12,8.24-3.49,11.33-3.49Z"/>
    <path fill="#44403f" d="M229.98,220.49c-5.99,0-6.75-2.29-6.75-5.22,0-.95-.03-3.39-.06-6.24h18.41v-5.1h-18.48c-.06-4.48-.12-8.53-.12-8.53h-3.69l-3.3,8.53h-9.54v5.1h8.89v8.92c0,3.95,4.6,7.52,12.76,7.52s12.21-1.02,12.21-1.02l1.66-5.22s-5.99,1.27-11.97,1.27Z"/>
    <path fill="#44403f" d="M49.27,165.15l1.34-4.84c10.03-1.06,11.44-1.18,13.33-1.18s19.03-.47,19.03,10.14v11.56h-7.78v-1.69c-2.48.86-6.57,2.01-13.33,2.01s-15.61-.83-15.61-6.29,8.02-6.72,13.76-6.72h15.02c0-1.53-.9-4.25-12.46-4.25-4.29,0-13.17,1.3-13.29,1.26ZM63.11,172.38c-2.99,0-9.51.35-9.51,2.28s3.85,2.04,10.62,2.04,8.36-.63,11.07-1.42v-2.87s-9.18-.04-12.17-.04Z"/>
    <path fill="#44403f" d="M176.49,165.15l1.34-4.84c10.03-1.06,11.44-1.18,13.33-1.18s19.03-.47,19.03,10.14v11.56h-7.78v-1.69c-2.48.86-6.57,2.01-13.33,2.01s-15.61-.83-15.61-6.29,8.02-6.72,13.76-6.72h15.02c0-1.53-.9-4.25-12.46-4.25-4.29,0-13.17,1.3-13.29,1.26ZM190.32,172.38c-2.99,0-9.51.35-9.51,2.28s3.85,2.04,10.62,2.04,8.36-.63,11.07-1.42v-2.87s-9.18-.04-12.17-.04Z"/>
    <path fill="#44403f" d="M160.29,161.44v-1.65h7.77s-.1,13.79-.1,17.67c0,7.48-5.82,11.55-18.35,11.55-5.82,0-13.49-1.07-15.73-1.36l-1.46-5.24c3.69,1.16,10.29,1.75,14.56,1.75,10.39,0,13.49-2.43,13.49-4.56v-2.72c-3.11,1.16-7.77,2.52-12.04,2.52s-18.64-.29-18.64-10.37c0-4.66,5.05-9.44,18.35-9.44,4.08,0,9.22,1.07,12.13,1.84ZM148.45,164.74c-4.85,0-10.78,1.26-10.78,4.56s3.98,4.66,11.36,4.66,11.26-2.14,11.26-2.14v-5.05c-1.65-.87-6.99-2.04-11.84-2.04Z"/>
    <path fill="#44403f" d="M120.21,162.3c-2.69-1.97-6.84-2.69-11.65-2.69-4.34,0-9.77,1.22-12.59,1.95v-1.44h-7.61v20.98h7.61v-14.61c1.23-.41,3.85-1.13,8.13-1.44,7.67-.57,12.69,1.3,12.69,5.39v10.71h7.62v-11.03c0-3.73-1.5-5.85-4.2-7.82Z"/>
    <path fill="#44403f" d="M244.45,165.66l-1.22-5.27c-7.83-2.12-15.24-.15-19.99,1.18v-1.68h-7.66v21.27h7.66v-14.44c7.53-2.63,16.97-2.08,21.21-1.05Z"/>
    <polygon fill="#44403f" points="32.69 151.58 32.69 163.66 8.15 163.66 8.15 151.58 0 151.58 0 181.15 8.15 181.15 8.15 168.87 32.69 168.87 32.69 181.15 40.84 181.15 40.84 151.58 32.69 151.58"/>
    <path fill="#44403f" d="M176.25,127.27c12.19-1.42,52.22-2.27,81.71,15.78,27.1,16.58,49.35,44.09,53.8,79.69-10.52-38.83-30.83-58.76-58.65-75.64-24.67-14.97-61.48-19.82-76.85-19.82Z"/>
    <path fill="#e83e34" d="M380.64,80.14c-5.01.06-24.68,11.99-22.65-3.38,1.01-7.64,10.77-22.25,10.92-35.35.15-12.6-9.95-26.47-30.36-34.61.33,6.93-.18,20.41-6.25,24.86,3.03-15.17,3.41-26-6.3-28.97,3.26,15.53-2.71,26.16-5.33,27.04,1.42-8.29,3.5-27.58-5.22-29.73-1.83,46.65-15.97,38.53-20.56,56.88-3.24,12.94,8.7,24.61,12.54,28.11,31.85,29.04,53.38,15.42,61.08,11.58,9.88-4.92,18.39-16.51,12.14-16.44Z"/>
    <path fill="#2f5eab" d="M282.43,92.83c-7.6-13.63-12.08-29.9-15.75-31.73-1,1.16-1,3.36.61,6.4-1.6-.17-5.17-3.85-6.54-6.52-3.93-8.65-.76-21.03,11.79-21.96.4-.03.83-.03,1.28,0,.64-.19,1.44-.2,2.44,0,11.38,2.32,12.74-.46,10.22-3.02-16.73-16.96-72.81,3.57-94.85-5.73,2.02,9.1,14.46,13.65,27.2,11.02-3.98,5.12-16.92,2.76-24,2.49,7.18,11.22,20.53,8.93,28.75,7.11-6.2,4.45-12.58,5.65-20.46,5.09,9.4,13.85,25.51,21.74,38.26,24.64,11.87,2.7,28.82-3.21,36.23,12.22,3.72,7.74-8.21,23.49-7.64,26.2.21,1.03.89,1.88,1.78,2.5-.45.68-.89,1.26-1.35,1.63-3.2,2.63-5.75,3.2-8.63,3.36-2.87.16-6.53,2.18-7.06,4.45-.49,2.08,2.31,2.85,2.31,2.85-1.01-1.87-.15-2.64.89-3.42,2.89-2.14,6.53-1.38,7.1-1.29,3.38.55,5.12,1.42,6.12,2.63.92-.16,1.62-.52,2.93-.66.47-2.41-.32-3.96-1.36-5.09,0,0,1.34-1.46,3.03-3.32,1.03-.04,1.98-.36,2.63-1.01.23-.23.64-.7,1.18-1.35.02,2.38.5,4.66,1.66,6.72-1.78,2.02-3.43,4.27-4.56,4.77-2.33,1.01-8.37-.17-10.31,4.1s1.67,5.16,1.97,5.46c-.86-1.57-.65-1.87-.17-2.79,1.98-3.8,6.55-3.64,10.1-2.17,6.1,2.53,6.07,3.47,5.45,8.55,4.04-3.44,4.69-4.4,3.84-6.42-.92-2.2-4.81-3.69-5.76-4.85.96-.95,2.5-2.14,4-3.22,3.07.27,7.87-1.57,13.08-9.9,1.38-2.21,3.61-4.82,5.66-4.55,6.62.88,9.5-.06,10.24-1.92-6.21,1.06-24.95-8.1-32.3-21.27Z"/>
    <path fill="#2f5eab" d="M271.78,136.23l2.69-.07s-.34,1.68-2.48,2.95c.6-1.68-.2-2.89-.2-2.89Z"/>
  </g>
</svg>
