<?xml version="1.0" encoding="UTF-8"?>
<svg id="_レイヤー_2" data-name="レイヤー 2" xmlns="http://www.w3.org/2000/svg" viewBox="0 0 177.32 17.14">
  <defs>
    <style>
      .cls-1 {
        fill: #fff;
        stroke-width: 0px;
      }
    </style>
  </defs>
  <g id="_レイヤー_1-2" data-name="レイヤー 1">
    <g>
      <path class="cls-1" d="M70.03,6.89c-1.46-1.07-3.72-1.46-6.34-1.46-2.36,0-5.31.66-6.84,1.06V.06h-4.14v17.05h4.14v-7.94c.67-.23,2.1-.61,4.42-.79,4.17-.31,6.9.71,6.9,2.93v5.82h4.14v-6c0-2.03-.82-3.18-2.28-4.25Z"/>
      <path class="cls-1" d="M39.36,5.12c-8.9,0-10.61,3.47-10.61,6.06s1.04,5.96,10.65,5.96c4.67,0,8.34-.8,8.34-.8l.77-2.73c-2.9.69-6.12.8-8.65.8-3.35,0-6.89-.68-6.89-3.23s3.54-3.33,6.89-3.33c2.54,0,5.76.11,8.65.8l-.77-2.73s-3.68-.8-8.34-.8"/>
      <path class="cls-1" d="M80.34,11.95h15.95c0-2.26-.75-6.84-9.57-6.84s-10.61,3.07-10.61,5.66,1.04,6.36,10.65,6.36c4.67,0,8.34-.8,8.34-.8l.77-2.73c-2.9.69-6.12.8-8.65.8-3.35,0-6.47-.2-6.89-2.45ZM86.76,7.71c2.45,0,5.1.73,5.1,1.9h-11.26c1.16-1.7,4.48-1.9,6.16-1.9Z"/>
      <path class="cls-1" d="M161.37,11.95h15.95c0-2.26-.75-6.84-9.57-6.84s-10.61,3.07-10.61,5.66,1.04,6.36,10.65,6.36c4.67,0,8.34-.8,8.34-.8l.77-2.73c-2.9.69-6.12.8-8.65.8-3.35,0-6.47-.2-6.89-2.45ZM167.8,7.71c2.45,0,5.1.73,5.1,1.9h-11.26c1.16-1.7,4.48-1.9,6.16-1.9Z"/>
      <path class="cls-1" d="M23.73,4.62l-1.01-3.18S18.3.28,12.37.28.8,2.16.8,5.34c0,7.81,19.6,3.4,19.75,6.65s-17.36,1.95-20.54.29l1.09,3.4s4.05,1.59,11.43,1.45,12.37-1.45,12.44-4.99-2.82-4.85-11.57-5.21-7.81-1.23-7.81-1.81,2.68-1.81,8.03-1.81,10.13,1.3,10.13,1.3Z"/>
      <path class="cls-1" d="M120.91,17.01h-4.22v-.88c-3.62,1.16-5.96,1.01-7.57,1.01s-9.05-.3-9.05-5.78,6.64-6.13,9.65-6.13,6.56,1.01,6.97,1.26V1.35h4.22v15.66ZM116.69,9.21c-.4-.24-2.98-1.06-6.3-1.06s-6.15.58-6.15,3.25,4.04,2.88,5.94,2.9,4.61-.4,6.51-1.08v-4.01Z"/>
      <path class="cls-1" d="M125.11,5.45h4.07v6.26c0,1.35,2.26,2.45,4,2.45s6.34.13,7.31-.97v-7.74h4.16v11.42h-4.16v-.71s-5.11.98-7.5.98c-3.2,0-7.88-1.32-7.88-5.35v-6.34Z"/>
      <rect class="cls-1" x="148.85" width="4.09" height="17.14"/>
    </g>
  </g>
</svg>