<?xml version="1.0" encoding="UTF-8"?>
<svg id="_レイヤー_2" data-name="レイヤー 2" xmlns="http://www.w3.org/2000/svg" viewBox="0 0 250.29 21.35">
  <defs>
    <style>
      .cls-1 {
        fill: #fff;
        stroke-width: 0px;
      }
    </style>
  </defs>
  <g id="_レイヤー_1-2" data-name="レイヤー 1">
    <g>
      <path class="cls-1" d="M27.7,8.38l.73-2.63c5.45-.58,6.22-.64,7.25-.64s10.34-.26,10.34,5.51v6.28h-4.23v-.92c-1.35.47-3.57,1.09-7.25,1.09s-8.49-.45-8.49-3.42,4.36-3.65,7.48-3.65h8.16c0-.83-.49-2.31-6.78-2.31-2.33,0-7.16.71-7.22.68ZM35.22,12.31c-1.62,0-5.17.19-5.17,1.24s2.09,1.11,5.77,1.11,4.54-.34,6.02-.77v-1.56s-4.99-.02-6.62-.02Z"/>
      <path class="cls-1" d="M99.71,8.38l.73-2.63c5.45-.58,6.22-.64,7.25-.64s10.34-.26,10.34,5.51v6.28h-4.23v-.92c-1.35.47-3.57,1.09-7.25,1.09s-8.49-.45-8.49-3.42,4.36-3.65,7.48-3.65h8.16c0-.83-.49-2.31-6.78-2.31-2.33,0-7.16.71-7.22.68ZM107.23,12.31c-1.62,0-5.17.19-5.17,1.24s2.09,1.11,5.77,1.11,4.54-.34,6.02-.77v-1.56s-4.99-.02-6.62-.02Z"/>
      <path class="cls-1" d="M89.89,6.36v-.9h4.22s-.05,7.49-.05,9.61c0,4.06-3.17,6.28-9.97,6.28-3.17,0-7.34-.58-8.55-.74l-.79-2.85c2.01.63,5.59.95,7.92.95,5.65,0,7.34-1.32,7.34-2.48v-1.48c-1.69.63-4.22,1.37-6.54,1.37s-10.13-.16-10.13-5.64c0-2.53,2.74-5.13,9.97-5.13,2.22,0,5.01.58,6.6,1ZM83.45,8.15c-2.64,0-5.86.69-5.86,2.48s2.16,2.53,6.17,2.53,6.12-1.16,6.12-1.16v-2.74c-.9-.47-3.8-1.11-6.44-1.11Z"/>
      <path class="cls-1" d="M199.46,6.36v-.9h4.22s-.05,7.49-.05,9.61c0,4.06-3.17,6.28-9.97,6.28-3.17,0-7.34-.58-8.55-.74l-.79-2.85c2.01.63,5.59.95,7.92.95,5.65,0,7.34-1.32,7.34-2.48v-1.48c-1.69.63-4.22,1.37-6.54,1.37s-10.13-.16-10.13-5.64c0-2.53,2.74-5.13,9.97-5.13,2.22,0,5.01.58,6.6,1ZM193.02,8.15c-2.64,0-5.86.69-5.86,2.48s2.16,2.53,6.17,2.53,6.12-1.16,6.12-1.16v-2.74c-.9-.47-3.8-1.11-6.44-1.11Z"/>
      <path class="cls-1" d="M179.04,2.97h-4.07V.04h4.07v2.93ZM179.04,5.56h-4.07v11.51h4.07V5.56Z"/>
      <path class="cls-1" d="M67.19,6.83c-1.46-1.07-3.72-1.46-6.34-1.46-2.36,0-5.31.66-6.84,1.06v-.78h-4.14v11.4h4.14v-7.94c.67-.23,2.1-.61,4.42-.79,4.17-.31,6.9.71,6.9,2.93v5.82h4.14v-6c0-2.03-.82-3.18-2.28-4.25Z"/>
      <path class="cls-1" d="M224.85,6.83c-1.46-1.07-3.72-1.46-6.34-1.46-2.36,0-5.31.66-6.84,1.06V0h-4.14v17.05h4.14v-7.94c.67-.23,2.1-.61,4.42-.79,4.17-.31,6.9.71,6.9,2.93v5.82h4.14v-6c0-2.03-.82-3.18-2.28-4.25Z"/>
      <path class="cls-1" d="M138.21,8.65l-.66-2.87c-4.26-1.15-8.29-.08-10.87.64v-.91h-4.17v11.56h4.17v-7.85c4.09-1.43,9.23-1.13,11.53-.57Z"/>
      <path class="cls-1" d="M155.16,11.89h15.95c0-2.26-.75-6.84-9.57-6.84s-10.61,3.07-10.61,5.66,1.04,6.36,10.65,6.36c4.67,0,8.34-.8,8.34-.8l.77-2.73c-2.9.69-6.12.8-8.65.8-3.35,0-6.47-.2-6.89-2.45ZM161.59,7.65c2.45,0,5.1.73,5.1,1.9h-11.26c1.16-1.7,4.48-1.9,6.16-1.9Z"/>
      <path class="cls-1" d="M243.78,14.38c-3.25,0-3.67-1.25-3.67-2.84,0-.52-.01-1.84-.03-3.39h10.01v-2.77h-10.04c-.03-2.44-.07-4.64-.07-4.64h-2.01l-1.79,4.64h-5.19v2.77h4.83v4.85c0,2.15,2.5,4.09,6.93,4.09s6.64-.55,6.64-.55l.9-2.84s-3.25.69-6.51.69Z"/>
      <polygon class="cls-1" points="17.77 1 17.77 7.57 4.43 7.57 4.43 1 0 1 0 17.08 4.43 17.08 4.43 10.4 17.77 10.4 17.77 17.08 22.2 17.08 22.2 1 17.77 1"/>
    </g>
  </g>
</svg>