<?xml version="1.0" encoding="UTF-8"?>
<svg id="_レイヤー_2" data-name="レイヤー 2" xmlns="http://www.w3.org/2000/svg" viewBox="0 0 174.13 17.04">
  <defs>
    <style>
      .cls-1 {
        fill: #000;
        stroke-width: 0px;
      }
    </style>
  </defs>
  <g id="_レイヤー_1-2" data-name="レイヤー 1">
    <g>
      <path class="cls-1" d="M80.67,2.93h-4.07V0h4.07v2.93ZM80.67,5.52h-4.07v11.51h4.07V5.52Z"/>
      <path class="cls-1" d="M102.75,6.79c-1.46-1.07-3.72-1.46-6.34-1.46-2.36,0-5.31.66-6.84,1.06v-.78h-4.14v11.4h4.14v-7.94c.67-.23,2.1-.61,4.42-.79,4.17-.31,6.9.71,6.9,2.93v5.82h4.14v-6c0-2.03-.82-3.18-2.28-4.25Z"/>
      <path class="cls-1" d="M113.48,11.85h15.95c0-2.26-.75-6.84-9.57-6.84s-10.61,3.07-10.61,5.66,1.04,6.36,10.65,6.36c4.67,0,8.34-.8,8.34-.8l.77-2.73c-2.9.69-6.12.8-8.65.8-3.35,0-6.47-.2-6.89-2.45ZM119.9,7.61c2.45,0,5.1.73,5.1,1.9h-11.26c1.16-1.7,4.48-1.9,6.16-1.9Z"/>
      <path class="cls-1" d="M62.49,17.04c-4.6,0-7.11-.97-7.22-1.01l-.1-.04-.93-2.93.48.25c1.15.6,5.29,1.14,8.69,1.14h0c2.57,0,4.34-.3,4.84-.83.09-.1.14-.2.13-.31-.03-.66-2.26-.73-4.41-.8-4.02-.13-9.03-.29-9.03-3.74,0-1.78,2.84-3.67,8.1-3.67,4.02,0,7.07.79,7.1.8l.12.03.85,2.67-.39-.11s-3.26-.88-6.83-.88-5.15.81-5.25,1.03c0,.02,0,.06,0,.11-.01.1-.01.13.02.17.2.23,1.24.55,5.1.71,6.1.25,8.14,1.2,8.09,3.77-.05,2.32-2.89,3.5-8.69,3.61-.22,0-.44,0-.65,0Z"/>
      <path class="cls-1" d="M142.44,17.04c-4.6,0-7.11-.97-7.22-1.01l-.1-.04-.93-2.93.48.25c1.15.6,5.29,1.14,8.69,1.14h0c2.57,0,4.34-.3,4.84-.83.09-.1.14-.2.13-.31-.03-.66-2.26-.73-4.41-.8-4.02-.13-9.03-.29-9.03-3.74,0-1.78,2.84-3.67,8.1-3.67,4.02,0,7.07.79,7.1.8l.12.03.85,2.67-.39-.11s-3.26-.88-6.83-.88-5.15.81-5.25,1.03c0,.02,0,.06,0,.11-.01.1-.01.13.02.17.2.23,1.24.55,5.1.71,6.1.25,8.14,1.2,8.09,3.77-.05,2.32-2.89,3.5-8.69,3.61-.22,0-.44,0-.65,0Z"/>
      <path class="cls-1" d="M164.8,17.04c-4.6,0-7.11-.97-7.22-1.01l-.1-.04-.93-2.93.48.25c1.15.6,5.29,1.14,8.69,1.14h0c2.57,0,4.34-.3,4.84-.83.09-.1.14-.2.13-.31-.03-.66-2.26-.73-4.41-.8-4.02-.13-9.03-.29-9.03-3.74,0-1.78,2.84-3.67,8.1-3.67,4.02,0,7.07.79,7.1.8l.12.03.85,2.67-.39-.11s-3.26-.88-6.83-.88-5.15.81-5.25,1.03c0,.02,0,.06,0,.11-.01.1-.01.13.02.17.2.23,1.24.55,5.1.71,6.1.25,8.14,1.2,8.09,3.77-.05,2.32-2.89,3.5-8.69,3.61-.22,0-.44,0-.65,0Z"/>
      <path class="cls-1" d="M23.6,8.89c1.01-.83,1.57-2.07,1.57-3.65,0-3.06-2.79-4.5-6.04-4.5H0v16.3h19.12c3.25,0,6.04-1.44,6.04-4.5,0-1.58-.56-2.81-1.57-3.65ZM18.42,14.14H4.35v-3.91h14.11c.83,0,2.34.33,2.34,1.96s-1.5,1.96-2.37,1.96ZM18.46,7.55H4.35v-3.91h14.07c.87,0,2.37.33,2.37,1.96s-1.5,1.96-2.34,1.96Z"/>
      <path class="cls-1" d="M29.93,5.35h4.07v6.26c0,1.35,2.26,2.45,4,2.45s6.34.13,7.31-.97v-7.74h4.16v11.42h-4.16v-.71s-5.11.98-7.5.98c-3.2,0-7.88-1.32-7.88-5.35v-6.34Z"/>
    </g>
  </g>
</svg>