<?xml version="1.0" encoding="UTF-8"?>
<svg id="_レイヤー_2" data-name="レイヤー 2" xmlns="http://www.w3.org/2000/svg" viewBox="0 0 186.18 16.65">
  <defs>
    <style>
      .cls-1 {
        fill: #000;
        stroke-width: 0px;
      }
    </style>
  </defs>
  <g id="_レイヤー_1-2" data-name="レイヤー 1">
    <g>
      <path class="cls-1" d="M70.06,6.4c-1.46-1.07-3.72-1.46-6.34-1.46-2.36,0-5.31.66-6.84,1.06v-.78h-4.14v11.4h4.14v-7.94c.67-.23,2.1-.61,4.42-.79,4.17-.31,6.9.71,6.9,2.93v5.82h4.14v-6c0-2.03-.82-3.18-2.28-4.25Z"/>
      <path class="cls-1" d="M140.26,6.4c-1.46-1.07-3.72-1.46-6.34-1.46-2.36,0-5.31.66-6.84,1.06v-.78h-4.14v11.4h4.14v-7.94c.67-.23,2.1-.61,4.42-.79,4.17-.31,6.9.71,6.9,2.93v5.82h4.14v-6c0-2.03-.82-3.18-2.28-4.25Z"/>
      <path class="cls-1" d="M102.74,11.46h15.95c0-2.26-.75-6.84-9.57-6.84s-10.61,3.07-10.61,5.66,1.04,6.36,10.65,6.36c4.67,0,8.34-.8,8.34-.8l.77-2.73c-2.9.69-6.12.8-8.65.8-3.35,0-6.47-.2-6.89-2.45ZM109.16,7.22c2.45,0,5.1.73,5.1,1.9h-11.26c1.16-1.7,4.48-1.9,6.16-1.9Z"/>
      <path class="cls-1" d="M88.4,13.95c-3.25,0-3.67-1.25-3.67-2.84,0-.52-.01-1.84-.03-3.39h10.01v-2.77h-10.04c-.03-2.44-.07-4.64-.07-4.64h-2.01l-1.79,4.64h-5.19v2.77h4.83v4.85c0,2.15,2.5,4.09,6.93,4.09s6.64-.55,6.64-.55l.9-2.84s-3.25.69-6.51.69Z"/>
      <path class="cls-1" d="M158.49,13.95c-3.25,0-3.67-1.25-3.67-2.84,0-.52-.01-1.84-.03-3.39h10.01v-2.77h-10.04c-.03-2.44-.07-4.64-.07-4.64h-2.01l-1.79,4.64h-5.19v2.77h4.83v4.85c0,2.15,2.5,4.09,6.93,4.09s6.64-.55,6.64-.55l.9-2.84s-3.25.69-6.51.69Z"/>
      <path class="cls-1" d="M176.85,16.65c-4.6,0-7.11-.97-7.22-1.01l-.1-.04-.93-2.93.48.25c1.15.6,5.29,1.14,8.69,1.14h0c2.57,0,4.34-.3,4.84-.83.09-.1.14-.2.13-.31-.03-.66-2.26-.73-4.41-.8-4.02-.13-9.03-.29-9.03-3.74,0-1.78,2.84-3.67,8.1-3.67,4.02,0,7.07.79,7.1.8l.12.03.85,2.67-.39-.11s-3.26-.88-6.83-.88-5.15.81-5.25,1.03c0,.02,0,.06,0,.11-.01.1-.01.13.02.17.2.23,1.24.55,5.1.71,6.1.25,8.14,1.2,8.09,3.77-.05,2.32-2.89,3.5-8.69,3.61-.22,0-.44,0-.65,0Z"/>
      <path class="cls-1" d="M23.72,15.99c-3.37.7-8.12.65-11.33.65S0,15.29,0,8.59,8.41.14,11.97.05c2.94-.08,8.91-.14,11.76.64l.71,3.28C13.18,1.61,4.49,3.18,4.56,8.59s10.67,5.62,19.88,4.12l-.71,3.28Z"/>
      <path class="cls-1" d="M38.55,4.74c4.37,0,10.6,1.2,10.6,5.88,0,4.25-5.86,6.03-10.6,6.03s-10.51-1.72-10.51-6.03,5.59-5.88,10.51-5.88ZM32.28,10.62c0,2.15,1.97,3.29,6.26,3.29s6.13-1.11,6.13-3.29-2.05-3.36-6.13-3.36-6.26,1.2-6.26,3.36Z"/>
    </g>
  </g>
</svg>