<?xml version="1.0" encoding="UTF-8"?>
<svg id="_レイヤー_2" data-name="レイヤー 2" xmlns="http://www.w3.org/2000/svg" viewBox="0 0 146.57 16.55">
  <defs>
    <style>
      .cls-1 {
        fill: #000;
        stroke-width: 0px;
      }
    </style>
  </defs>
  <g id="_レイヤー_1-2" data-name="レイヤー 1">
    <g>
      <path class="cls-1" d="M43.9,4.53c-8.9,0-10.61,3.47-10.61,6.06s1.04,5.96,10.65,5.96c4.67,0,8.34-.8,8.34-.8l.77-2.73c-2.9.69-6.12.8-8.65.8-3.35,0-6.89-.68-6.89-3.23s3.54-3.33,6.89-3.33c2.54,0,5.76.11,8.65.8l-.77-2.73s-3.68-.8-8.34-.8"/>
      <path class="cls-1" d="M68.26,4.53c-8.9,0-10.61,3.47-10.61,6.06s1.04,5.96,10.65,5.96c4.67,0,8.34-.8,8.34-.8l.77-2.73c-2.9.69-6.12.8-8.65.8-3.35,0-6.89-.68-6.89-3.23s3.54-3.33,6.89-3.33c2.54,0,5.76.11,8.65.8l-.77-2.73s-3.68-.8-8.34-.8"/>
      <path class="cls-1" d="M86.26,11.37h15.95c0-2.26-.75-6.84-9.57-6.84s-10.61,3.07-10.61,5.66,1.04,6.36,10.65,6.36c4.67,0,8.34-.8,8.34-.8l.77-2.73c-2.9.69-6.12.8-8.65.8-3.35,0-6.47-.2-6.89-2.45ZM92.68,7.12c2.45,0,5.1.73,5.1,1.9h-11.26c1.16-1.7,4.48-1.9,6.16-1.9Z"/>
      <path class="cls-1" d="M115.05,16.55c-4.6,0-7.11-.97-7.22-1.01l-.1-.04-.93-2.93.48.25c1.15.6,5.29,1.14,8.69,1.14h0c2.57,0,4.34-.3,4.84-.83.09-.1.14-.2.13-.31-.03-.66-2.26-.73-4.41-.8-4.02-.13-9.03-.29-9.03-3.74,0-1.78,2.84-3.67,8.1-3.67,4.02,0,7.07.79,7.1.8l.12.03.85,2.67-.39-.11s-3.26-.88-6.83-.88-5.15.81-5.25,1.03c0,.02,0,.06,0,.11-.01.1-.01.13.02.17.2.23,1.24.55,5.1.71,6.1.25,8.14,1.2,8.09,3.77-.05,2.32-2.89,3.5-8.69,3.61-.22,0-.44,0-.65,0Z"/>
      <path class="cls-1" d="M137.24,16.55c-4.6,0-7.11-.97-7.22-1.01l-.1-.04-.93-2.93.48.25c1.15.6,5.29,1.14,8.69,1.14h0c2.57,0,4.34-.3,4.84-.83.09-.1.14-.2.13-.31-.03-.66-2.26-.73-4.41-.8-4.02-.13-9.03-.29-9.03-3.74,0-1.78,2.84-3.67,8.1-3.67,4.02,0,7.07.79,7.1.8l.12.03.85,2.67-.39-.11s-3.26-.88-6.83-.88-5.15.81-5.25,1.03c0,.02,0,.06,0,.11-.01.1-.01.13.02.17.2.23,1.24.55,5.1.71,6.1.25,8.14,1.2,8.09,3.77-.05,2.32-2.89,3.5-8.69,3.61-.22,0-.44,0-.65,0Z"/>
      <path class="cls-1" d="M25.3,16.55h4.94L15.12,0,0,16.55h4.94s1.64-1.83,2.67-2.99h15.01l2.67,2.99ZM10.12,10.76c2.5-2.8,5-5.59,5-5.59l5,5.59h-10.01Z"/>
    </g>
  </g>
</svg>